#!OML:ASF X:\für Bonn\!DataBase\2005_08_12_Daniel\c3d\Daniel.ASF
:FULLY-SPECIFIED
:DEGREES
126
root 9.17811 8.48442 -2.67304 -1090.81 -23.6352 -29.402
lowerback 84.8006 1.05864 -0.643243
upperback 10.7333 -3.12374 -6.05637
thorax -8.01981 -1.62778 -5.64802
lowerneck -0.465812 10.3685 -4.26779
upperneck 2.44813 13.8126 -2.94105
head 0.749761 6.77902 -0.1255
rclavicle 2.54444e-014 9.06458e-014
rhumerus -26.342 13.4826 -79.2082
rradius 40.4119
rwrist 14.0188
rhand -18.2589 -342.263
rfingers 7.12502
rthumb 8.02047 -372.091
lclavicle 2.54444e-014 9.06458e-014
lhumerus -691.353 52.7097 -653.478
lradius 13.6911
lwrist -55.1931
lhand -58.0252 339.265
lfingers 7.12502
lthumb -30.2699 366.803
rfemur 284.514 -31.3134 413.054
rtibia 121.629
rfoot -12.859 26.6514
rtoes 21.5474
lfemur -51.095 20.6863 10.4891
ltibia 146.053
lfoot 24.7936 -45.2649
ltoes 15.272
127
root 9.29266 8.34192 -2.61925 -1090.61 -24.552 -30.1337
lowerback 84.7943 1.0995 -0.406896
upperback 10.7193 -2.96197 -6.07831
thorax -8.03225 -1.58167 -5.82737
lowerneck -0.472177 10.2145 -4.6457
upperneck 2.45966 13.6083 -2.82647
head 0.721816 6.67405 -0.0393048
rclavicle -5.08889e-014 7.95139e-015
rhumerus -26.6013 13.4077 -79.1306
rradius 40.5037
rwrist 14.1657
rhand -18.3513 -342.171
rfingers 7.12502
rthumb 7.93124 -372.003
lclavicle -5.08889e-014 7.95139e-015
lhumerus -692.582 52.9042 -653.83
lradius 13.5488
lwrist -54.9084
lhand -60.2131 337.223
lfingers 7.12502
lthumb -32.3547 364.358
rfemur 283.916 -31.923 413.329
rtibia 122.487
rfoot -12.5936 26.9421
rtoes 21.5989
lfemur -50.7959 21.5352 10.5624
ltibia 146.847
lfoot 24.4583 -45.2032
ltoes 15.041
128
root 9.40643 8.19675 -2.56396 -1090.42 -25.4559 -30.8593
lowerback 84.7246 1.12879 -0.15719
upperback 10.7365 -2.79002 -6.07944
thorax -8.01334 -1.53343 -5.98895
lowerneck -0.434414 10.0461 -5.00108
upperneck 2.46636 13.3817 -2.79812
head 0.694239 6.55737 0.0167653
rclavicle 9.54166e-015 -9.54166e-015
rhumerus -26.9036 13.3392 -79.0662
rradius 40.6575
rwrist 14.2637
rhand -18.4297 -342.136
rfingers 7.12502
rthumb 7.85565 -371.97
lclavicle 9.54166e-015 -9.54166e-015
lhumerus -694.38 52.6644 -654.486
lradius 13.9306
lwrist -53.9904
lhand -62.0887 334.718
lfingers 7.12502
lthumb -34.1379 361.471
rfemur 283.271 -32.5982 413.562
rtibia 123.354
rfoot -12.3261 27.2893
rtoes 21.4486
lfemur -50.5178 22.4289 10.5737
ltibia 147.643
lfoot 24.0525 -45.0893
ltoes 14.5574
129
root 9.51966 8.04978 -2.50582 -1090.21 -26.414 -31.6109
lowerback 84.587 1.15602 0.114969
upperback 10.7632 -2.60033 -6.0859
thorax -7.99192 -1.47717 -6.17105
lowerneck -0.298168 9.89704 -5.36278
upperneck 2.44079 13.1711 -2.78456
head 0.642213 6.44994 0.063249
rclavicle -5.08889e-014 9.54166e-014
rhumerus -27.2546 13.2978 -79.0307
rradius 40.805
rwrist 14.3979
rhand -18.434 -342.09
rfingers 7.12502
rthumb 7.85142 -371.925
lclavicle -5.08889e-014 9.54166e-014
lhumerus -696.293 52.4516 -655.01
lradius 14.6866
lwrist -53.1113
lhand -63.5836 331.697
lfingers 7.12502
lthumb -35.5563 358.122
rfemur 282.654 -33.2955 413.733
rtibia 124.22
rfoot -11.9244 27.7573
rtoes 21.3182
lfemur -50.1459 23.3816 10.64
ltibia 148.408
lfoot 23.7018 -45.0181
ltoes 14.0244
130
root 9.6321 7.89892 -2.44633 -1089.98 -27.3505 -32.3467
lowerback 84.3391 1.12032 0.444995
upperback 10.8467 -2.41737 -6.10289
thorax -7.92144 -1.41975 -6.38211
lowerneck -0.125675 9.73489 -5.76261
upperneck 2.41292 12.9385 -2.74766
head 0.580924 6.33167 0.120623
rclavicle -6.36111e-015 -1.59028e-014
rhumerus -27.6523 13.1916 -79.0017
rradius 41.0158
rwrist 14.5019
rhand -18.3445 -342.052
rfingers 7.12502
rthumb 7.93781 -371.883
lclavicle -6.36111e-015 -1.59028e-014
lhumerus -698.03 52.1125 -655.359
lradius 15.4233
lwrist -52.1812
lhand -64.833 328.351
lfingers 7.12502
lthumb -36.7397 354.482
rfemur 281.95 -34.0595 413.855
rtibia 125.113
rfoot -11.4265 28.3538
rtoes 21.0425
lfemur -49.8054 24.3824 10.6344
ltibia 149.172
lfoot 23.4037 -44.8835
ltoes 13.4623
131
root 9.74136 7.74694 -2.38454 -1089.72 -28.3197 -33.0901
lowerback 83.9759 1.10385 0.765595
upperback 10.9667 -2.2149 -6.09861
thorax -7.81887 -1.35682 -6.56963
lowerneck 0.0360447 9.58718 -6.16384
upperneck 2.42259 12.7253 -2.77079
head 0.537723 6.22061 0.163584
rclavicle -6.04305e-014 -4.45278e-014
rhumerus -28.0971 13.1371 -78.9908
rradius 41.2624
rwrist 14.6567
rhand -18.2739 -342.079
rfingers 7.12502
rthumb 8.00598 -371.908
lclavicle -6.04305e-014 -4.45278e-014
lhumerus -699.982 51.2764 -655.974
lradius 16.1742
lwrist -50.7775
lhand -65.8183 325.171
lfingers 7.12502
lthumb -37.6714 351.059
rfemur 281.242 -34.8059 413.96
rtibia 125.993
rfoot -10.8614 28.9984
rtoes 20.7067
lfemur -49.4341 25.4492 10.637
ltibia 149.913
lfoot 23.0736 -44.8501
ltoes 12.8787
132
root 9.85143 7.59425 -2.32095 -1089.45 -29.3166 -33.8635
lowerback 83.5941 1.03495 1.15547
upperback 11.0841 -2.0121 -6.11393
thorax -7.72303 -1.28824 -6.80781
lowerneck 0.227162 9.4287 -6.53761
upperneck 2.4449 12.4941 -2.80242
head 0.496975 6.10038 0.199893
rclavicle 3.18055e-015 2.22639e-014
rhumerus -28.6017 13.1028 -79.0213
rradius 41.5229
rwrist 14.7768
rhand -18.1941 -342.184
rfingers 7.12502
rthumb 8.083 -372.01
lclavicle 3.18055e-015 2.22639e-014
lhumerus -702.564 49.2814 -657.248
lradius 17.214
lwrist -48.2508
lhand -66.5049 322.804
lfingers 7.12502
lthumb -38.3197 348.516
rfemur 280.524 -35.608 414.046
rtibia 126.862
rfoot -10.2948 29.7221
rtoes 20.0446
lfemur -49.0362 26.5685 10.6638
ltibia 150.627
lfoot 22.9157 -44.8548
ltoes 12.4825
133
root 9.96162 7.44317 -2.25504 -1089.16 -30.3547 -34.601
lowerback 83.1418 0.997459 1.51291
upperback 11.2128 -1.80166 -6.11691
thorax -7.61914 -1.21731 -7.0216
lowerneck 0.429195 9.29538 -6.85637
upperneck 2.47855 12.2945 -2.89585
head 0.465385 5.99527 0.210446
rclavicle 6.36111e-015 -1.27222e-014
rhumerus -29.1158 13.1631 -79.0818
rradius 41.7873
rwrist 14.779
rhand -18.1123 -342.352
rfingers 7.12502
rthumb 8.16199 -372.175
lclavicle 6.36111e-015 -1.27222e-014
lhumerus -704.959 47.2145 -658.258
lradius 18.3631
lwrist -45.76
lhand -66.9723 320.863
lfingers 7.12502
lthumb -38.7607 346.451
rfemur 279.783 -36.4375 414.085
rtibia 127.699
rfoot -9.61448 30.5539
rtoes 19.4001
lfemur -48.6509 27.8017 10.6127
ltibia 151.278
lfoot 22.947 -44.8231
ltoes 12.5784
